# xmcd CD database file
#
# Track frame offsets:
#	150
#	27882
#	43815
#	68032
#	96882
#	115687
#	143597
#	166802
#	190535
#	217625
#
# Disc length: 3270 seconds
#
# Revision: 1
# Processed by: cddbd v1.5.1PL0 Copyright (c) Steve Scherf et al.
# Submitted via: CDex 1.51
#
DISCID=770cc40a
DTITLE=Big City Blues - Big City Blues
DYEAR=1998
DGENRE=Blues
TTITLE0=Satin Dawn
TTITLE1=Half-Past Cool
TTITLE2=Keys to the City
TTITLE3=Sleek Street
TTITLE4=Shadowland
TTITLE5=After Hours
TTITLE6=Midnight Mood
TTITLE7=On the Rocks
TTITLE8=High Mileage
TTITLE9=An Even Dozen
EXTD=YEAR: 1998
EXTT0=
EXTT1=
EXTT2=
EXTT3=
EXTT4=
EXTT5=
EXTT6=
EXTT7=
EXTT8=
EXTT9=
PLAYORDER=
